<?xml version="1.0" encoding="utf-8"?>
<!DOCTYPE svg PUBLIC "-//W3C//DTD SVG 1.1//EN" "http://www.w3.org/Graphics/SVG/1.1/DTD/svg11.dtd">
<svg version="1.1" id="Layer_1" xmlns="http://www.w3.org/2000/svg" xmlns:xlink="http://www.w3.org/1999/xlink" x="0px" y="0px"
	 width="610.687px" height="157.596px" viewBox="0 317.202 610.687 157.596" enable-background="new 0 317.202 610.687 157.596"
	 xml:space="preserve">
<g>
	<path fill="#68696C" d="M40.975,382.867h-2.626l-9.981-33.621c-0.525-1.838-0.788-3.152-0.788-4.202l0,0
		c0,0.788-0.263,2.364-1.051,4.202L15.76,382.867h-2.627L0,338.215h3.415l10.244,35.984c0.525,1.576,0.788,2.889,1.051,3.94l0,0
		c0-0.788,0.525-2.102,1.051-3.94l11.294-35.984h1.576l10.244,35.984c0.525,1.576,0.788,2.889,1.05,3.94l0,0
		c0-0.525,0.263-1.313,0.525-2.102l10.506-37.823h3.415L40.975,382.867"/>
	<path fill="#68696C" d="M71.969,367.107c0,4.465,1.05,7.88,3.152,10.244c2.101,2.364,4.728,3.677,8.405,3.677
		s7.092-1.313,10.506-3.94v3.152c-3.415,2.364-7.092,3.415-11.032,3.415c-4.203,0-7.354-1.576-9.981-4.465
		c-2.626-2.889-3.939-7.092-3.939-12.607c0-4.728,1.313-8.668,3.939-11.82c2.627-3.152,6.042-4.728,10.244-4.728
		c3.94,0,7.092,1.313,9.193,4.203c2.102,2.889,3.152,6.566,3.152,11.557v1.313H71.969 M92.719,364.48
		c0-3.677-1.051-6.566-2.626-8.667c-1.576-2.102-3.94-3.152-6.829-3.152c-2.89,0-5.516,1.05-7.354,2.889
		c-2.102,2.101-3.152,4.991-3.677,8.667h20.487V364.48z"/>
	<path fill="#572A66" d="M149.191,352.398c0,4.465-1.576,7.88-4.728,10.769s-7.617,4.465-13.133,4.465h-4.728v15.234h-9.981v-44.652
		h15.76C143.413,338.215,149.191,342.942,149.191,352.398 M138.422,352.924c0-4.728-2.626-6.83-8.143-6.83h-3.94v13.921h3.94
		C135.796,360.016,138.422,357.651,138.422,352.924"/>
	<path fill="#572A66" d="M202.774,382.867h-11.557l-4.465-11.557c-1.576-3.677-3.415-5.516-6.041-5.516h-2.102v17.073h-9.981
		v-44.652h16.022c10.77,0,16.285,3.939,16.285,12.082c0,3.152-1.051,5.779-2.889,8.143c-1.839,2.102-4.203,3.415-7.354,4.203l0,0
		c2.626,0.788,4.728,3.152,6.304,6.829L202.774,382.867 M190.167,351.61c0-3.94-2.364-5.779-7.092-5.779h-4.465v12.345h4.465
		c2.101,0,3.94-0.788,5.253-2.101C189.378,355.025,190.167,353.449,190.167,351.61"/>
	<path fill="#572A66" d="M262.924,360.278c0,7.092-2.102,12.87-6.042,17.073c-4.203,4.203-9.456,6.566-16.022,6.566
		c-6.304,0-11.557-2.101-15.497-6.304c-4.203-4.203-6.042-9.718-6.042-16.285c0-7.092,2.102-12.607,6.042-17.073
		c4.202-4.465,9.456-6.566,16.547-6.566c6.304,0,11.557,2.101,15.497,6.304C261.085,347.933,262.924,353.449,262.924,360.278
		 M252.417,360.803c0-4.728-1.05-8.405-3.152-11.032c-1.838-2.626-4.728-3.677-8.143-3.677c-3.677,0-6.566,1.313-8.667,4.203
		c-2.102,2.627-2.89,6.042-2.89,10.244c0,4.465,1.051,8.142,3.415,10.769c2.101,2.364,4.728,3.677,7.879,3.677
		c3.415,0,6.042-1.051,8.143-3.415C251.367,368.946,252.417,365.531,252.417,360.803"/>
	<polygon fill="#572A66" points="312.041,346.357 299.171,346.357 299.171,382.867 289.189,382.867 289.189,346.357 
		276.582,346.357 276.582,338.215 312.041,338.215 	"/>
	<polygon fill="#572A66" points="357.744,382.867 330.953,382.867 330.953,338.215 356.693,338.215 356.693,346.357 
		340.934,346.357 340.934,356.338 355.643,356.338 355.643,364.48 340.934,364.48 340.934,374.725 357.744,374.725 	"/>
	<path fill="#572A66" d="M409.751,381.291c-3.151,1.576-7.617,2.364-12.87,2.364c-7.092,0-12.607-2.101-16.548-6.566
		c-3.677-3.94-5.516-9.193-5.516-15.76c0-7.092,2.101-13.133,6.566-17.335c4.465-4.465,10.243-6.566,17.336-6.566
		c4.465,0,8.142,0.525,11.031,1.576v9.719c-2.89-1.839-6.304-2.627-10.244-2.627c-3.939,0-7.354,1.313-9.98,3.677
		c-2.627,2.627-4.203,6.304-4.203,11.032c0,4.203,1.313,7.88,3.678,10.244c2.364,2.626,5.778,3.94,9.719,3.94
		c3.939,0,7.616-1.051,10.769-2.89v9.193"/>
	<polygon fill="#572A66" points="461.758,346.357 449.15,346.357 449.15,382.867 438.906,382.867 438.906,346.357 426.299,346.357 
		426.299,338.215 461.758,338.215 	"/>
	<polygon fill="#676969" points="65.665,474.535 58.573,474.535 58.573,463.504 65.402,463.504 65.402,465.605 61.2,465.605 
		61.2,467.969 65.14,467.969 65.14,470.07 61.2,470.07 61.2,472.697 65.665,472.697 	"/>
	<path fill="#676969" d="M81.688,474.535h-2.626l-4.991-6.829c-0.263-0.263-0.525-0.788-0.525-0.788l0,0c0,0.525,0,1.051,0,1.839
		v6.041h-2.626v-11.031h2.889l4.728,6.566c0.263,0.263,0.263,0.525,0.525,0.788l0,0c0-0.263,0-0.788,0-1.576v-6.041h2.626V474.535"
		/>
	<path fill="#676969" d="M98.235,469.02c0,1.576-0.525,3.152-1.839,4.203c-1.051,1.051-2.626,1.575-4.465,1.575h-4.203v-11.031
		h4.203C96.134,463.504,98.235,465.343,98.235,469.02 M95.346,469.02c0-1.051-0.262-1.839-1.05-2.363
		c-0.525-0.525-1.576-1.051-2.889-1.051h-1.313v6.829h1.313c1.05,0,2.101-0.263,2.626-1.051
		C95.083,470.858,95.346,470.07,95.346,469.02"/>
	<path fill="#676969" d="M120.299,474.273c-1.051,0.262-2.102,0.524-3.415,0.524c-1.839,0-3.415-0.524-4.465-1.575
		s-1.576-2.364-1.576-3.94c0-1.839,0.525-3.151,1.839-4.202c1.051-1.051,2.626-1.576,4.465-1.576c1.05,0,2.101,0.263,2.889,0.525
		v2.364c-0.788-0.525-1.576-0.788-2.626-0.788c-1.051,0-1.839,0.263-2.627,0.788c-0.788,0.524-1.05,1.575-1.05,2.626
		s0.262,1.839,1.05,2.627c0.525,0.525,1.576,1.051,2.627,1.051c1.05,0,2.101-0.263,2.889-0.788V474.273"/>
	<polygon fill="#676969" points="135.796,474.535 133.169,474.535 133.169,470.07 128.179,470.07 128.179,474.535 125.552,474.535 
		125.552,463.504 128.179,463.504 128.179,467.969 133.169,467.969 133.169,463.504 135.796,463.504 	"/>
	<rect x="142.1" y="463.504" fill="#676969" width="2.626" height="11.031"/>
	<polygon fill="#676969" points="157.859,474.535 150.768,474.535 150.768,463.504 153.394,463.504 153.394,472.697 
		157.859,472.697 	"/>
	<path fill="#676969" d="M173.356,469.02c0,1.576-0.525,3.152-1.839,4.203c-1.051,1.051-2.626,1.575-4.465,1.575h-4.203v-11.031
		h4.203C171.255,463.504,173.356,465.343,173.356,469.02 M170.467,469.02c0-1.051-0.263-1.839-1.05-2.363
		c-0.525-0.525-1.576-1.051-2.89-1.051h-1.05v6.829h1.313c1.051,0,2.102-0.263,2.627-1.051
		C170.204,470.858,170.467,470.07,170.467,469.02"/>
	<path fill="#676969" d="M193.844,471.646c0,0.788-0.263,1.576-1.051,2.102c-0.788,0.787-2.101,1.05-3.677,1.05
		c-1.313,0-2.364-0.263-3.152-0.524v-2.364c1.051,0.788,2.102,1.051,3.152,1.051c0.525,0,1.051,0,1.313-0.263
		s0.263-0.525,0.263-0.788s-0.263-0.788-0.525-1.051s-0.788-0.525-1.576-0.788c-1.838-0.788-2.626-1.839-2.626-3.152
		c0-1.05,0.263-1.838,1.051-2.363s1.838-0.788,3.152-0.788c1.051,0,2.101,0.263,2.889,0.525v2.364
		c-0.788-0.525-1.576-0.788-2.626-0.788c-0.525,0-0.788,0-1.313,0.263c0-0.263,0,0,0,0.263s0.263,0.524,0.525,0.787
		s0.788,0.525,1.313,0.788c1.051,0.525,1.838,1.051,2.364,1.313C193.581,470.07,193.844,470.858,193.844,471.646"/>
	<polygon fill="#676969" points="206.189,474.535 199.097,474.535 199.097,463.504 205.926,463.504 205.926,465.605 
		201.986,465.605 201.986,467.969 205.664,467.969 205.664,470.07 201.986,470.07 201.986,472.697 206.189,472.697 	"/>
	<path fill="#676969" d="M221.161,474.535h-3.152l-2.102-3.677c0,0-0.263-0.263-0.263-0.788l0,0c0,0.263-0.263,0.525-0.263,0.788
		l-2.101,3.415h-3.152l3.677-5.517l-3.415-5.516h3.152l1.576,3.415c0.263,0.262,0.263,0.524,0.263,1.05l0,0
		c0-0.263,0.263-0.525,0.263-1.05l1.839-3.152h2.889l-3.677,5.516L221.161,474.535"/>
	<path fill="#676969" d="M235.87,469.808c0,3.415-1.576,4.99-4.991,4.99c-3.152,0-4.728-1.575-4.728-4.728v-6.304h2.627v6.304
		c0,1.839,0.788,2.627,2.364,2.627s2.102-0.788,2.102-2.627v-6.566h2.626V469.808"/>
	<path fill="#676969" d="M251.892,474.535h-2.889l-1.05-2.363h-4.203l-0.788,2.363h-2.889l4.203-11.031h3.152L251.892,474.535
		 M247.427,470.333l-1.313-3.677c0-0.263-0.263-0.525-0.263-1.051l0,0c0,0.263,0,0.525-0.263,1.051l-1.313,3.677H247.427z"/>
	<polygon fill="#676969" points="263.711,474.535 256.62,474.535 256.62,463.504 259.246,463.504 259.246,472.697 263.711,472.697 	
		"/>
	<polygon fill="#676969" points="283.937,474.535 276.845,474.535 276.845,463.504 283.674,463.504 283.674,465.605 
		279.471,465.605 279.471,467.969 283.411,467.969 283.411,470.07 279.471,470.07 279.471,472.697 283.937,472.697 	"/>
	<path fill="#676969" d="M298.908,474.535h-3.152l-2.102-3.677c0,0-0.263-0.263-0.263-0.788l0,0c0,0.263-0.263,0.525-0.263,0.788
		l-2.101,3.415h-3.152l3.677-5.517l-3.415-5.516h3.152l1.576,3.415c0.262,0.262,0.262,0.524,0.262,1.05l0,0
		c0-0.263,0.263-0.525,0.263-1.05l1.839-3.152h2.889l-3.677,5.516L298.908,474.535"/>
	<path fill="#676969" d="M312.304,467.181c0,1.051-0.525,1.839-1.313,2.627s-2.101,1.051-3.414,1.051h-1.313v3.677h-2.627v-11.031
		h4.203C310.728,463.504,312.304,464.817,312.304,467.181 M309.415,467.181c0-1.05-0.788-1.575-2.102-1.575h-1.051v3.414h1.051
		C308.89,469.02,309.415,468.494,309.415,467.181"/>
	<polygon fill="#676969" points="324.387,474.535 317.294,474.535 317.294,463.504 320.184,463.504 320.184,472.697 
		324.387,472.697 	"/>
	<path fill="#676969" d="M339.883,469.02c0,1.839-0.525,3.152-1.575,4.203c-1.051,1.051-2.627,1.575-4.203,1.575
		s-3.151-0.524-4.202-1.575s-1.576-2.364-1.576-3.94c0-1.839,0.525-3.151,1.576-4.202s2.626-1.576,4.465-1.576
		c1.576,0,3.152,0.525,4.203,1.576C339.357,465.868,339.883,467.443,339.883,469.02 M336.994,469.282
		c0-1.051-0.263-2.102-0.788-2.626c-0.525-0.525-1.313-1.051-2.102-1.051c-1.051,0-1.839,0.263-2.363,1.051
		c-0.525,0.524-0.788,1.575-0.788,2.626s0.263,2.102,0.788,2.627c0.524,0.525,1.312,0.788,2.101,0.788s1.576-0.263,2.102-0.788
		C336.731,471.121,336.994,470.333,336.994,469.282"/>
	<rect x="345.137" y="463.504" fill="#676969" width="2.626" height="11.031"/>
	<polygon fill="#676969" points="362.209,465.605 359.058,465.605 359.058,474.535 356.168,474.535 356.168,465.605 
		353.017,465.605 353.017,463.504 362.209,463.504 	"/>
	<path fill="#676969" d="M376.656,474.535h-2.89l-0.788-2.363h-4.203l-0.787,2.363h-2.89l4.202-11.031h3.152L376.656,474.535
		 M372.19,470.333l-1.313-3.677c0-0.263-0.263-0.525-0.263-1.051l0,0c0,0.263,0,0.525-0.263,1.051l-1.312,3.677H372.19z"/>
	<polygon fill="#676969" points="388.476,465.605 385.323,465.605 385.323,474.535 382.435,474.535 382.435,465.605 
		379.282,465.605 379.282,463.504 388.476,463.504 	"/>
	<rect x="393.466" y="463.504" fill="#676969" width="2.627" height="11.031"/>
	<path fill="#676969" d="M413.166,469.02c0,1.839-0.525,3.152-1.576,4.203s-2.627,1.575-4.203,1.575
		c-1.575,0-3.151-0.524-4.202-1.575s-1.576-2.364-1.576-3.94c0-1.839,0.525-3.151,1.576-4.202s2.627-1.576,4.465-1.576
		c1.576,0,3.152,0.525,4.203,1.576C412.641,465.868,413.166,467.443,413.166,469.02 M410.276,469.282
		c0-1.051-0.263-2.102-0.788-2.626c-0.525-0.525-1.313-1.051-2.102-1.051c-1.05,0-1.838,0.263-2.363,1.051
		c-0.525,0.524-0.788,1.575-0.788,2.626s0.263,2.102,0.788,2.627s1.313,0.788,2.101,0.788c0.788,0,1.576-0.263,2.102-0.788
		C410.014,471.121,410.276,470.333,410.276,469.282"/>
	<path fill="#676969" d="M429.188,474.535h-2.626l-4.991-6.829c-0.262-0.263-0.524-0.788-0.524-0.788l0,0c0,0.525,0,1.051,0,1.839
		v6.041h-2.627v-11.031h2.89l4.728,6.566c0.263,0.263,0.263,0.525,0.525,0.788l0,0c0-0.263,0-0.788,0-1.576v-6.041h2.626V474.535"/>
	<path fill="#676969" d="M454.141,469.02c0,1.839-0.525,3.152-1.576,4.203s-2.626,1.575-4.202,1.575s-3.152-0.524-4.203-1.575
		c-1.05-1.051-1.575-2.364-1.575-3.94c0-1.839,0.525-3.151,1.575-4.202c1.051-1.051,2.627-1.576,4.466-1.576
		c1.576,0,3.151,0.525,4.202,1.576C453.615,465.868,454.141,467.443,454.141,469.02 M451.514,469.282
		c0-1.051-0.262-2.102-0.787-2.626c-0.525-0.525-1.313-1.051-2.102-1.051c-1.051,0-1.839,0.263-2.364,1.051
		c-0.525,0.524-0.788,1.575-0.788,2.626s0.263,2.102,0.788,2.627s1.313,0.788,2.102,0.788s1.576-0.263,2.102-0.788
		C451.252,471.121,451.514,470.333,451.514,469.282"/>
	<path fill="#676969" d="M470.163,474.535h-2.627l-4.99-6.829c-0.263-0.263-0.525-0.788-0.525-0.788l0,0c0,0.525,0,1.051,0,1.839
		v6.041h-2.627v-11.031h2.89l4.728,6.566c0.263,0.263,0.263,0.525,0.525,0.788l0,0c0-0.263,0-0.788,0-1.576v-6.041h2.627V474.535"/>
	<polygon fill="#676969" points="483.559,474.535 476.467,474.535 476.467,463.504 479.094,463.504 479.094,472.697 
		483.559,472.697 	"/>
	<rect x="488.287" y="463.504" fill="#676969" width="2.626" height="11.031"/>
	<path fill="#676969" d="M507.724,474.535h-2.627l-4.99-6.829c-0.263-0.263-0.525-0.788-0.525-0.788l0,0c0,0.525,0,1.051,0,1.839
		v6.041h-2.627v-11.031h2.89l4.728,6.566c0.263,0.263,0.263,0.525,0.525,0.788l0,0c0-0.263,0-0.788,0-1.576v-6.041h2.627V474.535"/>
	<polygon fill="#676969" points="521.119,474.535 514.027,474.535 514.027,463.504 520.856,463.504 520.856,465.605 
		516.654,465.605 516.654,467.969 520.594,467.969 520.594,470.07 516.654,470.07 516.654,472.697 521.119,472.697 	"/>
	<path fill="#676969" d="M23.902,434.086c-3.152,1.839-6.304,2.627-9.456,2.627c-4.203,0-7.354-1.313-9.981-4.203
		c-2.626-2.889-3.677-6.304-3.677-10.769c0-4.466,1.313-8.405,3.94-11.295c2.626-3.151,6.304-4.466,10.769-4.466
		c2.626,0,5.253,0.525,7.617,1.576v2.364c-2.626-1.313-5.253-1.839-7.88-1.839c-3.677,0-6.829,1.313-9.193,3.94
		c-2.364,2.626-3.415,5.778-3.415,9.719c0,4.202,1.051,7.617,3.152,9.98c2.102,2.364,4.991,3.678,8.668,3.678
		c2.626,0,4.991-0.525,7.092-1.839v-9.981h-6.829v-1.838h9.193V434.086"/>
	<polygon fill="#676969" points="39.399,436.188 39.399,406.244 41.5,406.244 41.5,434.349 53.32,434.349 53.32,436.188 	"/>
	<path fill="#676969" d="M77.485,436.713c-4.203,0-7.617-1.313-9.981-4.203c-2.626-2.889-3.677-6.566-3.677-11.031
		c0-4.729,1.313-8.668,3.94-11.558s6.041-4.202,10.506-4.202c3.94,0,7.354,1.312,9.718,4.202c2.364,2.89,3.677,6.304,3.677,10.769
		c0,4.991-1.313,8.932-3.94,11.558C85.102,435.399,81.688,436.713,77.485,436.713 M77.748,407.557c-3.415,0-6.304,1.314-8.668,3.678
		c-2.364,2.627-3.415,5.778-3.415,9.981c0,4.202,1.051,7.354,3.152,9.718c2.101,2.364,4.99,3.678,8.405,3.678
		c3.677,0,6.567-1.313,8.668-3.678c2.101-2.363,3.152-5.778,3.152-9.98c0-4.203-1.051-7.617-3.152-9.981
		C84.314,408.871,81.425,407.557,77.748,407.557"/>
	<path fill="#676969" d="M106.377,436.188v-29.943h7.88c2.364,0,4.203,0.525,5.516,1.838c1.313,1.313,2.101,2.89,2.101,4.99
		c0,1.84-0.525,3.152-1.313,4.466c-1.051,1.313-2.102,2.102-3.94,2.627l0,0c2.101,0.263,3.677,1.051,4.99,2.101
		c1.313,1.313,1.839,2.89,1.839,4.991c0,2.626-0.788,4.465-2.364,6.041c-1.576,1.576-3.677,2.364-6.567,2.364h-8.143
		 M108.216,408.082v11.558h4.203c2.101,0,3.94-0.525,5.253-1.576c1.313-1.051,1.839-2.626,1.839-4.466
		c0-3.677-2.101-5.252-6.304-5.252h-4.991V408.082z M108.216,421.741v12.607h5.516c2.364,0,4.202-0.525,5.516-1.576
		s1.839-2.627,1.839-4.728c0-4.203-2.89-6.304-8.405-6.304H108.216z"/>
	<path fill="#676969" d="M157.597,436.188l-3.415-9.193h-12.871l-3.415,9.193h-2.364l11.294-29.943h1.838l11.032,29.943H157.597
		 M148.403,411.234c-0.263-0.525-0.263-0.788-0.263-1.313c0-0.263-0.263-0.788-0.263-1.05l0,0c-0.263,0.787-0.525,1.575-0.788,2.101
		l-5.253,13.921h11.557L148.403,411.234z"/>
	<polygon fill="#676969" points="173.356,436.188 173.356,406.244 175.458,406.244 175.458,434.349 187.54,434.349 187.54,436.188 	
		"/>
	<path fill="#676969" d="M241.123,436.188l-3.415-9.193h-12.87l-3.415,9.193h-2.364l11.294-29.943h1.839l11.032,29.943H241.123
		 M231.93,411.234c-0.263-0.525-0.263-0.788-0.263-1.313c0-0.263-0.263-0.788-0.263-1.05l0,0c-0.263,0.787-0.525,1.575-0.788,2.101
		l-4.99,13.921h11.557L231.93,411.234z"/>
	<polygon fill="#676969" points="257.145,436.188 257.145,406.244 259.246,406.244 259.246,434.349 271.329,434.349 
		271.329,436.188 	"/>
	<polygon fill="#676969" points="285.25,436.188 285.25,406.244 287.351,406.244 287.351,434.349 299.171,434.349 299.171,436.188 	
		"/>
	<rect x="313.354" y="406.244" fill="#676969" width="2.102" height="29.943"/>
	<path fill="#676969" d="M351.178,436.188l-3.415-9.193h-12.87l-3.414,9.193h-2.364l11.294-29.943h1.839l11.032,29.943H351.178
		 M341.984,411.234c-0.263-0.525-0.263-0.788-0.263-1.313c0-0.263-0.263-0.788-0.263-1.05l0,0c-0.263,0.787-0.525,1.575-0.788,2.101
		l-4.99,13.921h11.557L341.984,411.234z"/>
	<path fill="#676969" d="M388.213,436.188l-17.861-24.165c-0.263-0.525-0.788-1.051-1.05-1.576l-0.263-0.525l0,0
		c0,0.263,0,0.788,0,1.313v24.69h-2.102v-29.681h1.576l17.598,23.901c0.263,0.525,0.788,1.051,1.313,1.839l0,0
		c0-1.051,0-1.839,0-2.626V405.98h2.102v29.944h-1.313"/>
	<path fill="#676969" d="M425.773,435.137c-2.364,1.051-4.99,1.576-7.617,1.576c-4.202,0-7.354-1.313-9.981-4.203
		c-2.626-2.627-3.939-6.304-3.939-10.769c0-4.729,1.313-8.669,4.202-11.558c2.89-2.889,6.304-4.465,10.77-4.465
		c2.364,0,4.465,0.262,6.566,1.051v2.363c-2.102-1.051-4.202-1.312-6.566-1.312c-3.678,0-6.829,1.312-9.193,3.939
		s-3.414,6.041-3.414,10.244c0,4.202,1.05,7.354,3.414,9.718c2.364,2.364,4.99,3.415,8.668,3.415c2.627,0,5.253-0.525,7.354-1.576
		v1.576"/>
	<polygon fill="#676969" points="441.008,436.188 441.008,406.244 454.929,406.244 454.929,408.082 442.847,408.082 
		442.847,420.165 454.141,420.165 454.141,422.004 442.847,422.004 442.847,434.349 455.454,434.349 455.454,436.188 	"/>
	
		<line fill="none" stroke="#676969" stroke-width="0.7472" stroke-linecap="round" stroke-linejoin="round" stroke-miterlimit="10" x1="42.551" y1="469.282" x2="5.778" y2="469.282"/>
	
		<line fill="none" stroke="#676969" stroke-width="0.7472" stroke-linecap="round" stroke-linejoin="round" stroke-miterlimit="10" x1="573.126" y1="469.282" x2="536.354" y2="469.282"/>
	<path fill="#572A66" d="M513.502,351.873c9.456,0,17.336-7.617,17.336-17.336c0-9.718-7.88-17.335-17.336-17.335
		s-17.336,7.88-17.336,17.335C496.166,343.993,504.046,351.873,513.502,351.873"/>
	<path fill="#572A66" d="M573.914,351.873c9.456,0,17.336-7.617,17.336-17.336c0-9.718-7.617-17.335-17.336-17.335
		c-9.456,0-17.336,7.88-17.336,17.335C556.578,343.993,564.458,351.873,573.914,351.873"/>
	<polygon fill="#572A66" points="589.937,375.25 610.687,355.025 601.23,345.832 583.37,363.167 564.195,363.167 542.395,343.73 
		525.322,360.803 504.309,360.803 487.762,344.519 478.831,353.187 499.318,373.937 488.287,411.234 497.479,411.234 
		497.479,434.874 509.825,434.874 509.825,411.234 517.18,411.234 517.18,434.874 529.524,434.874 529.524,411.234 539.506,411.234 
		529.262,374.199 542.395,360.803 557.892,375.25 557.892,434.874 570.237,434.874 570.237,412.811 577.592,412.811 
		577.592,434.874 589.937,434.874 	"/>
</g>
</svg>